<?xml version="1.0" encoding="iso-8859-1"?>
<!-- Uploaded to: SVG Repo, www.svgrepo.com, Generator: SVG Repo Mixer Tools -->
<svg height="800px" width="800px" version="1.1" id="Layer_1" xmlns="http://www.w3.org/2000/svg" xmlns:xlink="http://www.w3.org/1999/xlink" 
	 viewBox="0 0 512 512" xml:space="preserve">
<circle style="fill:#E07188;" cx="256" cy="85.333" r="62.061"/>
<path style="fill:#DC4161;" d="M318.061,85.333c0-34.273-27.785-62.061-62.061-62.061v124.121
	C290.276,147.392,318.061,119.608,318.061,85.333z"/>
<path style="fill:#F4D853;" d="M256,170.667c-47.054,0-85.333-38.281-85.333-85.333S208.946,0,256,0
	c47.051,0,85.333,38.281,85.333,85.333S303.051,170.667,256,170.667z M256,46.545c-21.388,0-38.788,17.4-38.788,38.788
	s17.4,38.788,38.788,38.788s38.788-17.4,38.788-38.788S277.388,46.545,256,46.545z"/>
<path style="fill:#E9A440;" d="M341.333,85.333C341.333,38.281,303.054,0,256,0v46.545c21.388,0,38.788,17.4,38.788,38.788
	s-17.4,38.786-38.788,38.788v46.545C303.054,170.665,341.333,132.386,341.333,85.333z"/>
<circle style="fill:#E07188;" cx="256" cy="426.667" r="62.061"/>
<path style="fill:#DC4161;" d="M256,364.606v124.121c34.276,0,62.061-27.786,62.061-62.061
	C318.061,392.394,290.276,364.608,256,364.606z"/>
<path style="fill:#F4D853;" d="M256,512c-47.054,0-85.333-38.281-85.333-85.333s38.279-85.333,85.333-85.333
	c47.051,0,85.333,38.281,85.333,85.333S303.051,512,256,512z M256,387.879c-21.388,0-38.788,17.4-38.788,38.788
	s17.4,38.788,38.788,38.788s38.788-17.4,38.788-38.788S277.388,387.879,256,387.879z"/>
<path style="fill:#E9A440;" d="M256,341.333v46.545c21.388,0.002,38.788,17.4,38.788,38.788s-17.4,38.788-38.788,38.788V512
	c47.054,0,85.333-38.281,85.333-85.333S303.054,341.335,256,341.333z"/>
<circle style="fill:#DC4161;" cx="426.667" cy="256" r="62.061"/>
<path style="fill:#E9A440;" d="M426.667,341.333c-47.054,0-85.333-38.281-85.333-85.333s38.279-85.333,85.333-85.333
	C473.718,170.667,512,208.947,512,256S473.718,341.333,426.667,341.333z M426.667,217.212c-21.388,0-38.788,17.4-38.788,38.788
	s17.4,38.788,38.788,38.788s38.788-17.4,38.788-38.788S448.054,217.212,426.667,217.212z"/>
<circle style="fill:#E07188;" cx="85.333" cy="256" r="62.061"/>
<path style="fill:#F4D853;" d="M85.333,341.333C38.279,341.333,0,303.053,0,256s38.279-85.333,85.333-85.333
	c47.051,0,85.333,38.281,85.333,85.333S132.385,341.333,85.333,341.333z M85.333,217.212c-21.388,0-38.788,17.4-38.788,38.788
	s17.4,38.788,38.788,38.788s38.788-17.4,38.788-38.788S106.721,217.212,85.333,217.212z"/>
<circle style="fill:#E9A440;" cx="376.677" cy="135.323" r="62.061"/>
<path style="fill:#668E2F;" d="M376.678,220.655c-22.79,0-44.221-8.876-60.34-24.992c-33.272-33.274-33.269-87.411,0-120.68
	c16.119-16.119,37.545-24.995,60.34-24.995c22.793,0,44.224,8.876,60.34,24.995c33.272,33.272,33.272,87.408,0,120.68
	C420.903,211.779,399.473,220.655,376.678,220.655z M376.678,96.532c-10.361,0-20.1,4.035-27.428,11.362
	c-15.124,15.123-15.124,39.73,0,54.855c7.325,7.325,17.067,11.359,27.428,11.359c10.361,0,20.103-4.034,27.428-11.36
	c15.124-15.123,15.124-39.731,0-54.854C396.778,100.568,387.039,96.532,376.678,96.532z"/>
<circle style="fill:#F4D853;" cx="135.323" cy="376.677" r="62.061"/>
<path style="fill:#7AA937;" d="M135.322,462.013c-22.795,0-44.221-8.876-60.34-24.993c-16.119-16.117-24.993-37.548-24.993-60.342
	c0-22.792,8.876-44.221,24.993-60.338c16.116-16.117,37.545-24.993,60.34-24.993c22.793,0,44.224,8.876,60.34,24.993
	c33.272,33.272,33.272,87.409,0,120.68C179.546,453.137,158.115,462.013,135.322,462.013z M135.322,337.891
	c-10.361,0-20.1,4.034-27.425,11.36c-7.328,7.328-11.363,17.068-11.363,27.429c0,10.361,4.034,20.101,11.36,27.428
	c7.328,7.326,17.067,11.362,27.428,11.362s20.103-4.035,27.428-11.36c15.124-15.124,15.124-39.731,0-54.855
	C155.425,341.926,145.681,337.891,135.322,337.891z"/>
<circle style="fill:#E9A440;" cx="376.677" cy="376.677" r="62.061"/>
<path style="fill:#668E2F;" d="M376.678,462.013c-22.79,0-44.221-8.876-60.34-24.992c-33.269-33.271-33.269-87.408-0.003-120.68
	c16.122-16.119,37.548-24.993,60.343-24.993c22.793,0,44.221,8.876,60.34,24.992c33.269,33.272,33.269,87.408,0.003,120.68
	C420.903,453.137,399.473,462.013,376.678,462.013z M376.678,337.892c-10.361,0-20.103,4.035-27.428,11.36
	c-15.121,15.123-15.121,39.731,0,54.855c7.328,7.325,17.067,11.36,27.428,11.36c10.361,0,20.103-4.034,27.428-11.36
	c15.121-15.124,15.124-39.733,0-54.855C396.781,341.926,387.039,337.892,376.678,337.892z"/>
<circle style="fill:#F4D853;" cx="135.323" cy="135.323" r="62.061"/>
<path style="fill:#7AA937;" d="M135.322,220.655c-22.795,0-44.224-8.876-60.34-24.993c-16.119-16.117-24.993-37.547-24.993-60.338
	c0-22.793,8.876-44.223,24.993-60.342c16.119-16.117,37.545-24.995,60.34-24.995c22.793,0,44.224,8.878,60.34,24.995
	c33.272,33.272,33.272,87.408,0,120.68C179.543,211.779,158.115,220.655,135.322,220.655z M135.322,96.532
	c-10.361,0-20.1,4.035-27.428,11.362s-11.36,17.067-11.36,27.428c0,10.359,4.035,20.1,11.36,27.428
	c7.328,7.326,17.067,11.36,27.428,11.36s20.103-4.034,27.428-11.36c15.124-15.123,15.124-39.731,0-54.854
	C155.421,100.568,145.681,96.532,135.322,96.532z"/>
<path style="fill:#8CB7E8;" d="M332.794,332.795c-42.409,42.415-111.175,42.415-153.588,0c-42.415-42.412-42.415-111.178,0-153.591
	c42.412-42.414,111.178-42.415,153.588,0C375.212,221.617,375.212,290.383,332.794,332.795z"/>
<path style="fill:#6398DE;" d="M332.794,179.205c-21.203-21.206-48.997-31.811-76.794-31.811v217.214
	c27.797,0,55.591-10.605,76.794-31.812C375.212,290.383,375.212,221.617,332.794,179.205z"/>
<path style="fill:#E07188;" d="M256,387.88c-35.227,0-68.343-13.719-93.252-38.63c-24.908-24.906-38.627-58.024-38.627-93.249
	c0-35.227,13.718-68.344,38.627-93.252s58.027-38.627,93.254-38.627c35.224,0,68.343,13.719,93.249,38.628
	c24.91,24.905,38.628,58.022,38.628,93.251c0,35.226-13.719,68.344-38.627,93.252C324.346,374.162,291.227,387.88,256,387.88z
	 M256.003,170.668c-22.793,0-44.224,8.876-60.343,24.993c-16.117,16.117-24.993,37.547-24.993,60.34
	c0,22.792,8.876,44.221,24.993,60.338c16.119,16.12,37.548,24.996,60.34,24.996c22.793,0,44.221-8.876,60.337-24.995
	c16.122-16.119,24.996-37.547,24.996-60.34c0-22.793-8.876-44.221-24.993-60.338C300.221,179.543,278.793,170.668,256.003,170.668z"
	/>
<path style="fill:#F4D853;" d="M255.994,279.267c-6.13,0-12.119-2.482-16.449-6.811c-4.343-4.329-6.824-10.333-6.824-16.462
	c0-6.111,2.482-12.117,6.824-16.446c4.33-4.344,10.318-6.827,16.449-6.827c6.127,0,12.13,2.482,16.46,6.827
	c4.327,4.329,6.813,10.333,6.813,16.446c0,6.128-2.486,12.133-6.813,16.462C268.124,276.784,262.121,279.267,255.994,279.267z"/>
<path style="fill:#DC4161;" d="M349.252,162.749c-24.906-24.91-58.024-38.628-93.249-38.628c0,0,0,0-0.003,0v46.545
	c0.003,0,0.003,0,0.003,0c22.79,0,44.218,8.876,60.337,24.995c16.117,16.119,24.993,37.547,24.993,60.34
	c0,22.792-8.876,44.221-24.996,60.34c-16.116,16.119-37.542,24.995-60.337,24.995v46.545c35.227,0,68.346-13.718,93.252-38.628
	c24.908-24.91,38.627-58.027,38.627-93.252C387.879,220.773,374.16,187.656,349.252,162.749z"/>
<path style="fill:#E9A440;" d="M279.267,255.994c0-6.111-2.486-12.117-6.813-16.446c-4.327-4.343-10.33-6.825-16.454-6.827v46.545
	c6.124-0.003,12.127-2.484,16.454-6.811C276.783,268.127,279.267,262.122,279.267,255.994z"/>
</svg>